<svg width="20" height="20" viewBox="0 0 20 20" fill="none" xmlns="http://www.w3.org/2000/svg">
<path fill-rule="evenodd" clip-rule="evenodd" d="M18 11H13C11.8954 11 11 11.8954 11 13V18C11 19.1046 11.8954 20 13 20H18C19.1046 20 20 19.1046 20 18V13C20 11.8954 19.1046 11 18 11ZM13 18V13H18V18H13ZM9 2V18C9 19.1046 8.10457 20 7 20H2C0.89543 20 0 19.1046 0 18V2C0 0.89543 0.89543 0 2 0H7C8.10457 0 9 0.89543 9 2ZM7 2H2V18H7V2ZM18 0H13C11.8954 0 11 0.89543 11 2V7C11 8.10457 11.8954 9 13 9H18C19.1046 9 20 8.10457 20 7V2C20 0.89543 19.1046 0 18 0ZM13 7V2H18V7H13Z" fill="#222222"/>
</svg>
