<?xml version="1.0" standalone="no"?>
<!DOCTYPE svg PUBLIC "-//W3C//DTD SVG 20010904//EN"
 "http://www.w3.org/TR/2001/REC-SVG-20010904/DTD/svg10.dtd">
<svg version="1.0" xmlns="http://www.w3.org/2000/svg"
 width="500.000000pt" height="500.000000pt" viewBox="0 0 500.000000 500.000000"
 preserveAspectRatio="xMidYMid meet">
<metadata>
Created by potrace 1.11, written by Peter Selinger 2001-2013
</metadata>
<g transform="translate(0.000000,500.000000) scale(0.100000,-0.100000)"
fill="#000000" stroke="none">
<path d="M1408 4377 l-1078 -622 0 -1255 1 -1255 1075 -620 c592 -341 1082
-620 1090 -620 7 0 497 279 1089 620 l1075 620 0 1255 0 1256 -1071 618 c-589
340 -1079 620 -1088 622 -9 2 -501 -276 -1093 -619z m1632 -1081 c267 -133
489 -248 494 -257 5 -9 6 -28 2 -43 -6 -24 -61 -54 -494 -269 l-487 -242 -65
1 c-64 1 -71 4 -552 242 -521 257 -518 256 -488 312 14 25 940 488 1000 500
19 4 51 4 70 2 19 -3 253 -114 520 -246z"/>
</g>
</svg>
