<svg width="16" height="16" viewBox="0 0 16 16" fill="none" xmlns="http://www.w3.org/2000/svg">
<path d="M14.7949 13.8535L11.8652 10.9238C11.7188 10.8066 11.543 10.7188 11.3672 10.7188H10.8984C11.6895 9.69336 12.1875 8.4043 12.1875 6.96875C12.1875 3.62891 9.43359 0.875 6.09375 0.875C2.72461 0.875 0 3.62891 0 6.96875C0 10.3379 2.72461 13.0625 6.09375 13.0625C7.5 13.0625 8.78906 12.5938 9.84375 11.7734V12.2715C9.84375 12.4473 9.90234 12.623 10.0488 12.7695L12.9492 15.6699C13.2422 15.9629 13.6816 15.9629 13.9453 15.6699L14.7656 14.8496C15.0586 14.5859 15.0586 14.1465 14.7949 13.8535ZM6.09375 10.7188C4.01367 10.7188 2.34375 9.04883 2.34375 6.96875C2.34375 4.91797 4.01367 3.21875 6.09375 3.21875C8.14453 3.21875 9.84375 4.91797 9.84375 6.96875C9.84375 9.04883 8.14453 10.7188 6.09375 10.7188Z" fill="white"/>
</svg>
