<svg width="22" height="18" viewBox="0 0 22 18" fill="none" xmlns="http://www.w3.org/2000/svg">
<path d="M9.6875 17C9.90625 17.0625 10.0938 16.9375 10.1562 16.75L14.4375 2.0625C14.5 1.84375 14.375 1.625 14.1875 1.59375L12.2812 1.03125C12.0625 0.96875 11.875 1.09375 11.8125 1.28125L7.53125 15.9688C7.46875 16.1875 7.59375 16.375 7.78125 16.4375L9.6875 17ZM6.125 13.5L7.5 12.0312C7.65625 11.875 7.625 11.6562 7.46875 11.5L4.65625 9L7.46875 6.53125C7.625 6.375 7.65625 6.125 7.5 6L6.125 4.53125C6 4.375 5.75 4.375 5.59375 4.53125L1.09375 8.75C0.9375 8.875 0.9375 9.125 1.09375 9.28125L5.59375 13.5C5.75 13.6562 6 13.6562 6.125 13.5ZM16.375 13.5L20.875 9.28125C21.0312 9.15625 21.0312 8.875 20.875 8.75L16.375 4.53125C16.2188 4.375 15.9688 4.375 15.8438 4.53125L14.4688 5.96875C14.3438 6.125 14.3438 6.375 14.5 6.53125L17.3438 9L14.5 11.5C14.3438 11.6562 14.3125 11.875 14.4688 12.0312L15.8438 13.5C15.9688 13.6562 16.2188 13.6562 16.375 13.5Z" fill="#4EB2A6"/>
</svg>
