<svg width="7" height="8" viewBox="0 0 7 8" fill="none" xmlns="http://www.w3.org/2000/svg">
<path d="M5 7H2.375C1.89062 7 1.5 6.60938 1.5 6.125V1.5H0.375C0.15625 1.5 0 1.67188 0 1.875V7.625C0 7.84375 0.15625 8 0.375 8H4.625C4.82812 8 5 7.84375 5 7.625V7ZM5 1.625V0H2.375C2.15625 0 2 0.171875 2 0.375V6.125C2 6.34375 2.15625 6.5 2.375 6.5H6.625C6.82812 6.5 7 6.34375 7 6.125V2H5.375C5.15625 2 5 1.84375 5 1.625ZM6.875 1.14062L5.85938 0.125C5.79688 0.0625 5.67188 0 5.59375 0H5.5V1.5H7V1.40625C7 1.32812 6.9375 1.20312 6.875 1.14062Z" fill="#004547" fill-opacity="0.38"/>
</svg>
