<svg width="21" height="18" viewBox="0 0 21 18" fill="none" xmlns="http://www.w3.org/2000/svg">
<path d="M18 10.75C18 10.75 15.875 13.8379 15.875 15C15.875 16.1953 16.8047 17.125 18 17.125C19.1621 17.125 20.125 16.1953 20.125 15C20.125 13.8379 18 10.75 18 10.75ZM17.668 7.36328L10.7617 0.457031C10.5625 0.257812 10.2969 0.125 10.0312 0.125C9.76562 0.125 9.4668 0.257812 9.26758 0.457031L6.57812 3.14648L3.68945 0.291016C3.49023 0.0917969 3.1582 0.0917969 2.95898 0.291016L2.19531 1.05469C1.99609 1.25391 1.99609 1.58594 2.19531 1.78516L5.05078 4.67383L1.92969 7.79492C0.667969 9.05664 0.667969 11.082 1.92969 12.3105L5.81445 16.1953C6.44531 16.8262 7.24219 17.125 8.07227 17.125C8.86914 17.125 9.69922 16.8262 10.3301 16.1953L17.668 8.85742C18.0996 8.42578 18.0996 7.76172 17.668 7.36328ZM13.8164 9.7207H3.1582C3.22461 9.58789 3.29102 9.45508 3.42383 9.32227L3.85547 8.89062L6.57812 6.16797L8.50391 8.12695C8.93555 8.52539 9.59961 8.52539 9.99805 8.12695C10.4297 7.69531 10.4297 7.03125 9.99805 6.59961L8.07227 4.67383L10.0312 2.71484L15.4102 8.09375L13.8164 9.7207Z" fill="#4EB2A6"/>
</svg>
