<svg width="17" height="17" viewBox="0 0 17 17" fill="none" xmlns="http://www.w3.org/2000/svg">
<path d="M8.23438 0.390625C3.68555 0.390625 0 4.10938 0 8.625C0 13.1738 3.68555 16.8594 8.23438 16.8594C12.75 16.8594 16.4688 13.1738 16.4688 8.625C16.4688 4.10938 12.75 0.390625 8.23438 0.390625ZM7.83594 8.39258C7.73633 8.55859 7.57031 8.625 7.37109 8.625C7.23828 8.625 7.10547 8.69141 7.00586 8.79102L6.80664 8.99023C6.70703 9.08984 6.70703 9.25586 6.80664 9.35547L7.00586 9.55469C7.10547 9.6543 7.17188 9.78711 7.17188 9.91992V10.2188C7.17188 10.5176 6.90625 10.75 6.64062 10.75H6.4082C6.20898 10.75 6.04297 10.6504 5.94336 10.4844L5.17969 8.95703C5.11328 8.82422 4.91406 8.75781 4.78125 8.89062L4.11719 9.55469C4.01758 9.6543 3.88477 9.6875 3.75195 9.6875H1.66016C1.62695 9.35547 1.59375 8.99023 1.59375 8.625C1.59375 4.97266 4.54883 1.98438 8.23438 1.98438C8.93164 1.98438 9.62891 2.11719 10.2598 2.31641L8.59961 3.61133C8.43359 3.71094 8.43359 3.97656 8.63281 4.07617L8.99805 4.24219C9.16406 4.3418 9.29688 4.50781 9.29688 4.70703V7.29688C9.29688 7.46289 9.16406 7.5625 9.03125 7.5625H8.89844C8.79883 7.5625 8.73242 7.5293 8.66602 7.42969C8.63281 7.33008 8.4668 7.33008 8.43359 7.42969L7.83594 8.39258ZM13.5469 12.0449C13.5469 12.1777 13.4805 12.3105 13.3809 12.4102L13.0488 12.7422C12.9492 12.8418 12.8164 12.875 12.6836 12.875H12.1855C12.0527 12.875 11.8867 12.8418 11.7871 12.7422L11.3555 12.3105C11.2227 12.1445 10.957 12.0449 10.7578 12.0449C10.6914 12.0449 10.5918 12.0449 10.5254 12.0781L9.82812 12.2441C9.76172 12.2441 9.72852 12.2773 9.69531 12.2773H9.36328C9.19727 12.2773 9.06445 12.2109 8.96484 12.1113L8.56641 11.7129C8.5332 11.6797 8.5 11.5801 8.5 11.5137V11.1816C8.5 11.082 8.56641 10.9824 8.66602 10.9492L9.96094 10.418C10.0273 10.3848 10.0938 10.3516 10.1602 10.3184L10.957 9.75391C10.9902 9.7207 11.0566 9.7207 11.0898 9.7207H11.4883C11.6211 9.7207 11.7207 9.75391 11.7539 9.85352L11.9199 10.2852C11.9531 10.3516 11.9863 10.3848 12.0527 10.3848H12.1855C12.2188 10.3848 12.2852 10.3516 12.2852 10.2852L12.4512 9.78711C12.4512 9.75391 12.5176 9.7207 12.5508 9.7207H12.7832C12.8496 9.7207 12.916 9.75391 12.916 9.85352V10.252C12.916 10.3516 12.916 10.418 12.9824 10.4512L13.3809 10.8496C13.4805 10.9492 13.5137 11.082 13.5137 11.2148V12.0449H13.5469Z" fill="#4EB2A6"/>
</svg>
