<svg width="19" height="18" viewBox="0 0 19 18" fill="none" xmlns="http://www.w3.org/2000/svg">
<path d="M1.39844 5.07227L9.13477 8.55859C9.36719 8.6582 9.59961 8.6582 9.83203 8.55859L17.5684 5.07227C18.1328 4.80664 18.1328 3.97656 17.5684 3.71094L9.83203 0.224609C9.73242 0.191406 9.59961 0.125 9.5 0.125C9.36719 0.125 9.23438 0.191406 9.13477 0.224609L1.39844 3.71094C0.833984 3.97656 0.833984 4.80664 1.39844 5.07227ZM17.5684 7.99414L15.6426 7.09766L10.2637 9.55469C10.0312 9.6543 9.76562 9.7207 9.5 9.7207C9.20117 9.7207 8.93555 9.6543 8.70312 9.55469L3.32422 7.09766L1.39844 7.99414C0.833984 8.22656 0.833984 9.05664 1.39844 9.32227L9.13477 12.8086C9.36719 12.9082 9.59961 12.9082 9.83203 12.8086L17.5684 9.32227C18.1328 9.05664 18.1328 8.22656 17.5684 7.99414ZM17.5684 12.2441L15.6426 11.3477L10.2637 13.8047C10.0312 13.9043 9.76562 13.9707 9.5 13.9707C9.20117 13.9707 8.93555 13.9043 8.70312 13.8047L3.32422 11.3477L1.39844 12.2441C0.833984 12.4766 0.833984 13.3066 1.39844 13.5723L9.13477 17.0586C9.36719 17.1582 9.59961 17.1582 9.83203 17.0586L17.5684 13.5723C18.1328 13.3066 18.1328 12.4766 17.5684 12.2441Z" fill="#4EB2A6"/>
</svg>
