<svg width="14" height="14" viewBox="0 0 14 14" fill="none" xmlns="http://www.w3.org/2000/svg">
<path d="M12.1875 5.96875H7.96875V1.75C7.96875 1.25195 7.5293 0.8125 7.03125 0.8125H6.09375C5.56641 0.8125 5.15625 1.25195 5.15625 1.75V5.96875H0.9375C0.410156 5.96875 0 6.4082 0 6.90625V7.84375C0 8.37109 0.410156 8.78125 0.9375 8.78125H5.15625V13C5.15625 13.5273 5.56641 13.9375 6.09375 13.9375H7.03125C7.5293 13.9375 7.96875 13.5273 7.96875 13V8.78125H12.1875C12.6855 8.78125 13.125 8.37109 13.125 7.84375V6.90625C13.125 6.4082 12.6855 5.96875 12.1875 5.96875Z" fill="#4EB2A6"/>
</svg>
